<?xml version="1.0" encoding="UTF-8" standalone="no"?><!DOCTYPE svg PUBLIC "-//W3C//DTD SVG 1.1//EN" "http://www.w3.org/Graphics/SVG/1.1/DTD/svg11.dtd"><svg width="100%" height="100%" viewBox="0 0 24 24" version="1.1" xmlns="http://www.w3.org/2000/svg" xmlns:xlink="http://www.w3.org/1999/xlink" xml:space="preserve" xmlns:serif="http://www.serif.com/" style="fill-rule:evenodd;clip-rule:evenodd;stroke-linejoin:round;stroke-miterlimit:2;"><path d="M18.75,4c1.714,-0 3.148,1.355 3.245,3.066l0.005,0.184l0,9.5c0,1.714 -1.355,3.148 -3.066,3.245l-0.184,0.005l-8.501,0c-0.762,0 -1.5,-0.267 -2.085,-0.756l-0.155,-0.139l-4.995,-4.75c-1.292,-1.228 -1.344,-3.302 -0.116,-4.594l0.116,-0.116l4.995,-4.75c0.552,-0.525 1.272,-0.839 2.032,-0.888l0.209,-0.007l8.501,0l-0.001,0Zm0,1.5l-8.501,0c-0.391,-0 -0.772,0.131 -1.08,0.372l-0.126,0.11l-4.996,4.75l-0.062,0.062c-0.618,0.65 -0.641,1.675 -0.054,2.352l0.116,0.122l4.996,4.75c0.285,0.27 0.65,0.437 1.039,0.474l0.167,0.008l8.501,0c0.906,-0 1.67,-0.704 1.744,-1.607l0.006,-0.143l0,-9.5c-0,-0.906 -0.704,-1.67 -1.607,-1.744l-0.143,-0.006Zm-7.304,2.897l0.084,0.073l2.47,2.469l2.47,-2.47c0.141,-0.141 0.332,-0.22 0.531,-0.22c0.411,-0 0.75,0.338 0.75,0.75c0,0.161 -0.052,0.318 -0.148,0.447l-0.073,0.084l-2.469,2.47l2.47,2.47c0.141,0.141 0.22,0.332 0.22,0.531c0,0.411 -0.338,0.75 -0.75,0.75c-0.161,0 -0.318,-0.052 -0.447,-0.148l-0.084,-0.073l-2.47,-2.469l-2.47,2.47c-0.141,0.141 -0.332,0.22 -0.531,0.22c-0.411,0 -0.75,-0.338 -0.75,-0.75c-0,-0.161 0.052,-0.318 0.148,-0.447l0.073,-0.084l2.47,-2.47l-2.47,-2.47c-0.139,-0.14 -0.218,-0.33 -0.218,-0.528c0,-0.412 0.339,-0.75 0.75,-0.75c0.16,-0 0.315,0.051 0.444,0.145Z" style="fill:#fff;fill-rule:nonzero;"/></svg>